<?xml version="1.0" encoding="UTF-8"?>
<svg xmlns="http://www.w3.org/2000/svg" xmlns:xlink="http://www.w3.org/1999/xlink" width="512pt" height="512pt" viewBox="0 0 512 512" version="1.1">
<defs>
<linearGradient id="linear0" gradientUnits="userSpaceOnUse" x1="132.421875" y1="41.492191" x2="132.421875" y2="56.5" gradientTransform="matrix(2.265487,0,0,2.265487,0,0)">
<stop offset="0" style="stop-color:rgb(98.823529%,95.294118%,99.215686%);stop-opacity:1;"/>
<stop offset="1" style="stop-color:rgb(43.137255%,85.490197%,98.823529%);stop-opacity:1;"/>
</linearGradient>
<linearGradient id="linear1" gradientUnits="userSpaceOnUse" x1="52.96875" y1="67.535156" x2="52.96875" y2="81.063377" gradientTransform="matrix(2.265487,0,0,2.265487,0,0)">
<stop offset="0" style="stop-color:rgb(98.823529%,95.294118%,99.215686%);stop-opacity:1;"/>
<stop offset="1" style="stop-color:rgb(43.137255%,85.490197%,98.823529%);stop-opacity:1;"/>
</linearGradient>
<linearGradient id="linear2" gradientUnits="userSpaceOnUse" x1="52.96875" y1="90.046883" x2="52.96875" y2="101.562279" gradientTransform="matrix(2.265487,0,0,2.265487,0,0)">
<stop offset="0" style="stop-color:rgb(98.823529%,95.294118%,99.215686%);stop-opacity:1;"/>
<stop offset="1" style="stop-color:rgb(43.137255%,85.490197%,98.823529%);stop-opacity:1;"/>
</linearGradient>
<linearGradient id="linear3" gradientUnits="userSpaceOnUse" x1="52.96875" y1="110.132622" x2="52.96875" y2="122.686218" gradientTransform="matrix(2.265487,0,0,2.265487,0,0)">
<stop offset="0" style="stop-color:rgb(98.823529%,95.294118%,99.215686%);stop-opacity:1;"/>
<stop offset="1" style="stop-color:rgb(43.137255%,85.490197%,98.823529%);stop-opacity:1;"/>
</linearGradient>
<linearGradient id="linear4" gradientUnits="userSpaceOnUse" x1="113" y1="27.723841" x2="113" y2="183.409592" gradientTransform="matrix(2.265487,0,0,2.265487,0,0)">
<stop offset="0" style="stop-color:rgb(87.843138%,56.470591%,94.117647%);stop-opacity:1;"/>
<stop offset="1" style="stop-color:rgb(1.960784%,74.117649%,96.078432%);stop-opacity:1;"/>
</linearGradient>
<linearGradient id="linear5" gradientUnits="userSpaceOnUse" x1="113" y1="27.723841" x2="113" y2="183.409592" gradientTransform="matrix(2.265487,0,0,2.265487,0,0)">
<stop offset="0" style="stop-color:rgb(87.843138%,56.470591%,94.117647%);stop-opacity:1;"/>
<stop offset="1" style="stop-color:rgb(1.960784%,74.117649%,96.078432%);stop-opacity:1;"/>
</linearGradient>
<linearGradient id="linear6" gradientUnits="userSpaceOnUse" x1="173.03125" y1="27.723841" x2="173.03125" y2="183.409592" gradientTransform="matrix(8,0,0,8,0,0)">
<stop offset="0" style="stop-color:rgb(87.843138%,56.470591%,94.117647%);stop-opacity:1;"/>
<stop offset="1" style="stop-color:rgb(1.960784%,74.117649%,96.078432%);stop-opacity:1;"/>
</linearGradient>
<linearGradient id="linear7" gradientUnits="userSpaceOnUse" x1="144.78125" y1="27.723841" x2="144.78125" y2="183.409592" gradientTransform="matrix(8,0,0,8,0,0)">
<stop offset="0" style="stop-color:rgb(87.843138%,56.470591%,94.117647%);stop-opacity:1;"/>
<stop offset="1" style="stop-color:rgb(1.960784%,74.117649%,96.078432%);stop-opacity:1;"/>
</linearGradient>
<linearGradient id="linear8" gradientUnits="userSpaceOnUse" x1="144.78125" y1="27.723841" x2="144.78125" y2="183.409592" gradientTransform="matrix(8,0,0,8,0,0)">
<stop offset="0" style="stop-color:rgb(87.843138%,56.470591%,94.117647%);stop-opacity:1;"/>
<stop offset="1" style="stop-color:rgb(1.960784%,74.117649%,96.078432%);stop-opacity:1;"/>
</linearGradient>
<linearGradient id="linear9" gradientUnits="userSpaceOnUse" x1="102.40625" y1="27.723841" x2="102.40625" y2="183.409592" gradientTransform="matrix(8,0,0,8,0,0)">
<stop offset="0" style="stop-color:rgb(87.843138%,56.470591%,94.117647%);stop-opacity:1;"/>
<stop offset="1" style="stop-color:rgb(1.960784%,74.117649%,96.078432%);stop-opacity:1;"/>
</linearGradient>
<linearGradient id="linear10" gradientUnits="userSpaceOnUse" x1="144.78125" y1="27.723841" x2="144.78125" y2="183.409592" gradientTransform="matrix(8,0,0,8,0,0)">
<stop offset="0" style="stop-color:rgb(87.843138%,56.470591%,94.117647%);stop-opacity:1;"/>
<stop offset="1" style="stop-color:rgb(1.960784%,74.117649%,96.078432%);stop-opacity:1;"/>
</linearGradient>
<linearGradient id="linear11" gradientUnits="userSpaceOnUse" x1="102.40625" y1="27.723841" x2="102.40625" y2="183.409592" gradientTransform="matrix(8,0,0,8,0,0)">
<stop offset="0" style="stop-color:rgb(87.843138%,56.470591%,94.117647%);stop-opacity:1;"/>
<stop offset="1" style="stop-color:rgb(1.960784%,74.117649%,96.078432%);stop-opacity:1;"/>
</linearGradient>
<linearGradient id="linear12" gradientUnits="userSpaceOnUse" x1="95.34375" y1="27.723841" x2="95.34375" y2="183.409592" gradientTransform="matrix(8,0,0,8,0,0)">
<stop offset="0" style="stop-color:rgb(87.843138%,56.470591%,94.117647%);stop-opacity:1;"/>
<stop offset="1" style="stop-color:rgb(1.960784%,74.117649%,96.078432%);stop-opacity:1;"/>
</linearGradient>
<linearGradient id="linear13" gradientUnits="userSpaceOnUse" x1="123.59375" y1="27.723841" x2="123.59375" y2="183.409592" gradientTransform="matrix(8,0,0,8,0,0)">
<stop offset="0" style="stop-color:rgb(87.843138%,56.470591%,94.117647%);stop-opacity:1;"/>
<stop offset="1" style="stop-color:rgb(1.960784%,74.117649%,96.078432%);stop-opacity:1;"/>
</linearGradient>
<linearGradient id="linear14" gradientUnits="userSpaceOnUse" x1="95.34375" y1="27.723841" x2="95.34375" y2="183.409592" gradientTransform="matrix(8,0,0,8,0,0)">
<stop offset="0" style="stop-color:rgb(87.843138%,56.470591%,94.117647%);stop-opacity:1;"/>
<stop offset="1" style="stop-color:rgb(1.960784%,74.117649%,96.078432%);stop-opacity:1;"/>
</linearGradient>
<linearGradient id="linear15" gradientUnits="userSpaceOnUse" x1="123.59375" y1="27.723841" x2="123.59375" y2="183.409592" gradientTransform="matrix(8,0,0,8,0,0)">
<stop offset="0" style="stop-color:rgb(87.843138%,56.470591%,94.117647%);stop-opacity:1;"/>
<stop offset="1" style="stop-color:rgb(1.960784%,74.117649%,96.078432%);stop-opacity:1;"/>
</linearGradient>
</defs>
<g id="surface6946441">
<path style=" stroke:none;fill-rule:nonzero;fill:url(#linear0);" d="M 184 104 L 416 104 L 416 120 L 184 120 Z M 184 104 "/>
<path style=" stroke:none;fill-rule:nonzero;fill:url(#linear1);" d="M 120 156 C 113.601562 156 108 161.601562 108 168 C 108 174.398438 113.601562 180 120 180 C 126.398438 180 132 174.398438 132 168 C 132 161.601562 126.398438 156 120 156 Z M 120 156 "/>
<path style=" stroke:none;fill-rule:nonzero;fill:url(#linear2);" d="M 120 204 C 113.601562 204 108 209.601562 108 216 C 108 222.398438 113.601562 228 120 228 C 126.398438 228 132 222.398438 132 216 C 132 209.601562 126.398438 204 120 204 Z M 120 204 "/>
<path style=" stroke:none;fill-rule:nonzero;fill:url(#linear3);" d="M 120 252 C 113.601562 252 108 257.601562 108 264 C 108 270.398438 113.601562 276 120 276 C 126.398438 276 132 270.398438 132 264 C 132 257.601562 126.398438 252 120 252 Z M 120 252 "/>
<path style=" stroke:none;fill-rule:nonzero;fill:url(#linear4);" d="M 416 88 L 96 88 C 87.199219 88 80 95.199219 80 104 L 80 312 L 432 312 L 432 104 C 432 95.199219 424.800781 88 416 88 Z M 96 104 L 160 104 C 162.398438 104 164.800781 104.800781 166.398438 107.199219 L 176 120 L 96 120 Z M 96 136 L 144 136 L 144 296 L 96 296 Z M 416 296 L 160 296 L 160 136 L 416 136 Z M 416 120 L 200 120 C 197.601562 120 195.199219 119.199219 193.601562 116.800781 L 184 104 L 416 104 Z M 416 120 "/>
<path style=" stroke:none;fill-rule:nonzero;fill:url(#linear5);" d="M 440 56 L 72 56 C 58.398438 56 48 66.398438 48 80 L 48 352 C 48 365.601562 58.398438 376 72 376 L 208 376 L 208 408 L 176 408 C 162.398438 408 152 418.398438 152 432 L 152 456 L 360 456 L 360 432 C 360 418.398438 349.601562 408 336 408 L 304 408 L 304 376 L 440 376 C 453.601562 376 464 365.601562 464 352 L 464 80 C 464 66.398438 453.601562 56 440 56 Z M 336 424 C 340.800781 424 344 427.199219 344 432 L 344 440 L 168 440 L 168 432 C 168 427.199219 171.199219 424 176 424 Z M 224 408 L 224 376 L 288 376 L 288 408 Z M 448 352 C 448 356.800781 444.800781 360 440 360 L 72 360 C 67.199219 360 64 356.800781 64 352 L 64 80 C 64 75.199219 67.199219 72 72 72 L 440 72 C 444.800781 72 448 75.199219 448 80 Z M 448 352 "/>
<path style=" stroke:none;fill-rule:nonzero;fill:url(#linear6);" d="M 368 328 L 416 328 L 416 344 L 368 344 Z M 368 328 "/>
<path style=" stroke:none;fill-rule:nonzero;fill:url(#linear7);" d="M 304 328 L 352 328 L 352 344 L 304 344 Z M 304 328 "/>
<path style=" stroke:none;fill-rule:nonzero;fill:url(#linear8);" d="M 288 160 L 368 160 L 368 176 L 288 176 Z M 288 160 "/>
<path style=" stroke:none;fill-rule:nonzero;fill:url(#linear9);" d="M 192 160 L 272 160 L 272 176 L 192 176 Z M 192 160 "/>
<path style=" stroke:none;fill-rule:nonzero;fill:url(#linear10);" d="M 288 256 L 368 256 L 368 272 L 288 272 Z M 288 256 "/>
<path style=" stroke:none;fill-rule:nonzero;fill:url(#linear11);" d="M 192 256 L 272 256 L 272 272 L 192 272 Z M 192 256 "/>
<path style=" stroke:none;fill-rule:nonzero;fill:url(#linear12);" d="M 192 192 L 240 192 L 240 208 L 192 208 Z M 192 192 "/>
<path style=" stroke:none;fill-rule:nonzero;fill:url(#linear13);" d="M 256 192 L 304 192 L 304 208 L 256 208 Z M 256 192 "/>
<path style=" stroke:none;fill-rule:nonzero;fill:url(#linear14);" d="M 192 224 L 240 224 L 240 240 L 192 240 Z M 192 224 "/>
<path style=" stroke:none;fill-rule:nonzero;fill:url(#linear15);" d="M 256 224 L 304 224 L 304 240 L 256 240 Z M 256 224 "/>
</g>
</svg>
