<?xml version="1.0" encoding="UTF-8"?>
<svg xmlns="http://www.w3.org/2000/svg" xmlns:xlink="http://www.w3.org/1999/xlink" width="512pt" height="512pt" viewBox="0 0 512 512" version="1.1">
<defs>
<linearGradient id="linear0" gradientUnits="userSpaceOnUse" x1="86" y1="68.980057" x2="86" y2="143.418442" gradientTransform="matrix(2.976744,0,0,2.976744,0,0)">
<stop offset="0" style="stop-color:rgb(87.843138%,56.470591%,94.117647%);stop-opacity:1;"/>
<stop offset="1" style="stop-color:rgb(1.960784%,74.117649%,96.078432%);stop-opacity:1;"/>
</linearGradient>
<linearGradient id="linear1" gradientUnits="userSpaceOnUse" x1="83.70488" y1="28.21875" x2="83.70488" y2="80.310562" gradientTransform="matrix(2.976744,0,0,2.976744,0,0)">
<stop offset="0" style="stop-color:rgb(98.823529%,95.294118%,99.215686%);stop-opacity:1;"/>
<stop offset="1" style="stop-color:rgb(43.137255%,85.490197%,98.823529%);stop-opacity:1;"/>
</linearGradient>
</defs>
<g id="surface6905461">
<path style=" stroke:none;fill-rule:nonzero;fill:url(#linear0);" d="M 440 408 L 440 240 L 424 240 L 424 408 L 392 408 L 392 208 L 376 208 L 376 408 L 344 408 L 344 264 L 328 264 L 328 408 L 280 408 L 280 296 L 264 296 L 264 408 L 232 408 L 232 336 L 216 336 L 216 408 L 184 408 L 184 240 L 168 240 L 168 408 L 136 408 L 136 368 L 120 368 L 120 408 L 88 408 L 88 336 L 72 336 L 72 408 L 48 408 L 48 424 L 464 424 L 464 408 Z M 440 408 "/>
<path style=" stroke:none;fill-rule:nonzero;fill:url(#linear1);" d="M 406.496094 88.519531 L 365.070312 100.007812 C 359.960938 101.425781 358.28125 107.824219 362.03125 111.566406 L 375.574219 125.113281 L 288.96875 211.71875 C 279.609375 221.078125 264.390625 221.078125 255.03125 211.71875 L 204.28125 160.96875 C 188.6875 145.375 163.3125 145.375 147.71875 160.96875 L 74.34375 234.34375 L 85.65625 245.65625 L 159.03125 172.28125 C 168.390625 162.921875 183.609375 162.921875 192.96875 172.28125 L 243.71875 223.03125 C 259.3125 238.625 284.6875 238.625 300.28125 223.03125 L 386.886719 136.425781 L 400.433594 149.96875 C 404.183594 153.71875 410.574219 152.03125 411.992188 146.921875 L 423.480469 105.496094 C 426.351562 95.160156 416.839844 85.648438 406.496094 88.519531 Z M 406.496094 88.519531 "/>
</g>
</svg>
