<?xml version="1.0" encoding="UTF-8"?>
<svg xmlns="http://www.w3.org/2000/svg" xmlns:xlink="http://www.w3.org/1999/xlink" width="512pt" height="512pt" viewBox="0 0 512 512" version="1.1">
<defs>
<linearGradient id="linear0" gradientUnits="userSpaceOnUse" x1="86" y1="96.078133" x2="86" y2="119.150307" gradientTransform="matrix(2.976744,0,0,2.976744,0,0)">
<stop offset="0" style="stop-color:rgb(98.823529%,95.294118%,99.215686%);stop-opacity:1;"/>
<stop offset="1" style="stop-color:rgb(43.137255%,85.490197%,98.823529%);stop-opacity:1;"/>
</linearGradient>
<linearGradient id="linear1" gradientUnits="userSpaceOnUse" x1="86" y1="14.78125" x2="86" y2="156.974197" gradientTransform="matrix(2.976744,0,0,2.976744,0,0)">
<stop offset="0" style="stop-color:rgb(87.843138%,56.470591%,94.117647%);stop-opacity:1;"/>
<stop offset="1" style="stop-color:rgb(1.960784%,74.117649%,96.078432%);stop-opacity:1;"/>
</linearGradient>
<linearGradient id="linear2" gradientUnits="userSpaceOnUse" x1="86" y1="14.78125" x2="86" y2="156.974197" gradientTransform="matrix(2.976744,0,0,2.976744,0,0)">
<stop offset="0" style="stop-color:rgb(87.843138%,56.470591%,94.117647%);stop-opacity:1;"/>
<stop offset="1" style="stop-color:rgb(1.960784%,74.117649%,96.078432%);stop-opacity:1;"/>
</linearGradient>
<linearGradient id="linear3" gradientUnits="userSpaceOnUse" x1="123.625" y1="14.78125" x2="123.625" y2="156.974197" gradientTransform="matrix(2.976744,0,0,2.976744,0,0)">
<stop offset="0" style="stop-color:rgb(87.843138%,56.470591%,94.117647%);stop-opacity:1;"/>
<stop offset="1" style="stop-color:rgb(1.960784%,74.117649%,96.078432%);stop-opacity:1;"/>
</linearGradient>
<linearGradient id="linear4" gradientUnits="userSpaceOnUse" x1="123.625" y1="14.78125" x2="123.625" y2="156.974197" gradientTransform="matrix(2.976744,0,0,2.976744,0,0)">
<stop offset="0" style="stop-color:rgb(87.843138%,56.470591%,94.117647%);stop-opacity:1;"/>
<stop offset="1" style="stop-color:rgb(1.960784%,74.117649%,96.078432%);stop-opacity:1;"/>
</linearGradient>
<linearGradient id="linear5" gradientUnits="userSpaceOnUse" x1="86" y1="26.203131" x2="86" y2="38.76181" gradientTransform="matrix(2.976744,0,0,2.976744,0,0)">
<stop offset="0" style="stop-color:rgb(98.823529%,95.294118%,99.215686%);stop-opacity:1;"/>
<stop offset="1" style="stop-color:rgb(43.137255%,85.490197%,98.823529%);stop-opacity:1;"/>
</linearGradient>
</defs>
<g id="surface6909833">
<path style=" stroke:none;fill-rule:nonzero;fill:url(#linear0);" d="M 256 288 C 238.328125 288 224 302.328125 224 320 C 224 337.671875 238.328125 352 256 352 C 273.671875 352 288 337.671875 288 320 C 288 302.328125 273.671875 288 256 288 Z M 256 288 "/>
<path style=" stroke:none;fill-rule:nonzero;fill:url(#linear1);" d="M 400 208 L 392 208 C 392 199.175781 384.824219 192 376 192 L 360 192 C 351.175781 192 344 199.175781 344 208 L 331.519531 208 C 328.070312 208 325.03125 205.808594 323.945312 202.535156 L 315.230469 176.398438 C 311.960938 166.59375 302.824219 160 292.480469 160 L 280 160 L 280 144 L 304 144 C 317.230469 144 328 133.230469 328 120 L 328 72 C 328 58.769531 317.230469 48 304 48 L 208 48 C 194.769531 48 184 58.769531 184 72 L 184 120 C 184 133.230469 194.769531 144 208 144 L 232 144 L 232 160 L 219.519531 160 C 209.175781 160 200.03125 166.59375 196.769531 176.398438 L 188.039062 202.550781 C 186.960938 205.808594 183.921875 208 180.480469 208 L 168 208 C 168 199.175781 160.824219 192 152 192 L 136 192 C 127.175781 192 120 199.175781 120 208 L 112 208 C 98.769531 208 88 218.769531 88 232 L 88 440 C 88 453.230469 98.769531 464 112 464 L 400 464 C 413.230469 464 424 453.230469 424 440 L 424 232 C 424 218.769531 413.230469 208 400 208 Z M 200 120 L 200 72 C 200 67.585938 203.585938 64 208 64 L 304 64 C 308.414062 64 312 67.585938 312 72 L 312 120 C 312 124.414062 308.414062 128 304 128 L 208 128 C 203.585938 128 200 124.414062 200 120 Z M 248 144 L 264 144 L 264 160 L 248 160 Z M 203.222656 207.601562 L 211.953125 181.449219 C 213.039062 178.191406 216.078125 176 219.519531 176 L 292.472656 176 C 295.921875 176 298.960938 178.191406 300.046875 181.464844 L 308.761719 207.601562 C 308.808594 207.742188 308.878906 207.863281 308.929688 208.007812 L 203.054688 208.007812 C 203.105469 207.863281 203.175781 207.742188 203.222656 207.601562 Z M 104 368 L 120 368 L 120 352 L 104 352 L 104 336 L 120 336 L 120 320 L 104 320 L 104 304 L 120 304 L 120 288 L 104 288 L 104 275.097656 L 130.550781 283.945312 C 133.816406 285.03125 136 288.070312 136 291.503906 L 136 364.488281 C 136 367.929688 133.816406 370.96875 130.550781 372.046875 L 104 380.902344 Z M 408 440 C 408 444.414062 404.414062 448 400 448 L 112 448 C 107.585938 448 104 444.414062 104 440 L 104 432 L 408 432 Z M 104 416 L 104 397.761719 L 135.617188 387.222656 C 145.414062 383.960938 152 374.832031 152 364.496094 L 152 291.511719 C 152 281.175781 145.414062 272.039062 135.617188 268.777344 L 104 258.238281 L 104 232 C 104 227.585938 107.585938 224 112 224 L 400 224 C 404.414062 224 408 227.585938 408 232 L 408 416 Z M 104 416 "/>
<path style=" stroke:none;fill-rule:nonzero;fill:url(#linear2);" d="M 256 256 C 220.710938 256 192 284.710938 192 320 C 192 355.289062 220.710938 384 256 384 C 291.289062 384 320 355.289062 320 320 C 320 284.710938 291.289062 256 256 256 Z M 256 368 C 229.527344 368 208 346.472656 208 320 C 208 293.527344 229.527344 272 256 272 C 282.472656 272 304 293.527344 304 320 C 304 346.472656 282.472656 368 256 368 Z M 256 368 "/>
<path style=" stroke:none;fill-rule:nonzero;fill:url(#linear3);" d="M 344 384 L 392 384 L 392 400 L 344 400 Z M 344 384 "/>
<path style=" stroke:none;fill-rule:nonzero;fill:url(#linear4);" d="M 376 240 L 360 240 C 351.175781 240 344 247.175781 344 256 C 344 264.824219 351.175781 272 360 272 L 376 272 C 384.824219 272 392 264.824219 392 256 C 392 247.175781 384.824219 240 376 240 Z M 376 240 "/>
<path style=" stroke:none;fill-rule:nonzero;fill:url(#linear5);" d="M 288 112 L 224 112 C 219.585938 112 216 108.414062 216 104 L 216 88 C 216 83.585938 219.585938 80 224 80 L 288 80 C 292.414062 80 296 83.585938 296 88 L 296 104 C 296 108.414062 292.414062 112 288 112 Z M 288 112 "/>
</g>
</svg>
