<?xml version="1.0" encoding="UTF-8"?>
<svg xmlns="http://www.w3.org/2000/svg" xmlns:xlink="http://www.w3.org/1999/xlink" width="512pt" height="512pt" viewBox="0 0 512 512" version="1.1">
<defs>
<linearGradient id="linear0" gradientUnits="userSpaceOnUse" x1="35.64431" y1="19.84181" x2="35.64431" y2="51.417252" gradientTransform="matrix(2.976744,0,0,2.976744,0,0)">
<stop offset="0" style="stop-color:rgb(98.823529%,95.294118%,99.215686%);stop-opacity:1;"/>
<stop offset="1" style="stop-color:rgb(43.137255%,85.490197%,98.823529%);stop-opacity:1;"/>
</linearGradient>
<linearGradient id="linear1" gradientUnits="userSpaceOnUse" x1="49.837002" y1="99.265503" x2="49.837002" y2="127.532631" gradientTransform="matrix(2.976744,0,0,2.976744,0,0)">
<stop offset="0" style="stop-color:rgb(98.823529%,95.294118%,99.215686%);stop-opacity:1;"/>
<stop offset="1" style="stop-color:rgb(43.137255%,85.490197%,98.823529%);stop-opacity:1;"/>
</linearGradient>
<linearGradient id="linear2" gradientUnits="userSpaceOnUse" x1="85.72319" y1="15.49613" x2="85.72319" y2="157.519745" gradientTransform="matrix(2.976744,0,0,2.976744,0,0)">
<stop offset="0" style="stop-color:rgb(87.843138%,56.470591%,94.117647%);stop-opacity:1;"/>
<stop offset="1" style="stop-color:rgb(1.960784%,74.117649%,96.078432%);stop-opacity:1;"/>
</linearGradient>
</defs>
<g id="surface16272806">
<path style=" stroke:none;fill-rule:nonzero;fill:url(#linear0);" d="M 87.222656 152.953125 L 60.921875 126.640625 C 54.015625 119.734375 54.015625 108.535156 60.921875 101.632812 L 103.792969 58.761719 C 110.695312 51.855469 121.894531 51.855469 128.800781 58.761719 L 156.464844 86.425781 "/>
<path style=" stroke:none;fill-rule:nonzero;fill:url(#linear1);" d="M 184.0625 406.574219 C 184.144531 406.496094 184.230469 406.433594 184.304688 406.351562 C 196.953125 393.695312 203.769531 376.183594 202.992188 358.296875 C 202.199219 340.167969 194.046875 323.703125 180.023438 311.921875 C 168.9375 302.609375 155.191406 297.6875 140.265625 297.6875 C 123.128906 297.6875 106.320312 304.441406 93.648438 316.167969 Z M 184.0625 406.574219 "/>
<path style=" stroke:none;fill-rule:nonzero;fill:url(#linear2);" d="M 466.847656 426.328125 L 454.726562 373.382812 L 318.929688 237.574219 L 445.359375 98.992188 C 456.511719 86.617188 456.015625 67.695312 444.230469 55.910156 C 432.457031 44.136719 413.535156 43.625 401.113281 54.824219 L 262.566406 181.222656 L 220.304688 138.953125 L 196.777344 115.425781 C 197.550781 112.6875 198.097656 109.871094 198.097656 106.945312 C 198.097656 98.664062 194.871094 90.878906 189.015625 85.03125 C 180.808594 76.824219 169.113281 74.335938 158.648438 77.296875 L 134.449219 53.105469 C 124.441406 43.097656 108.152344 43.078125 98.128906 53.105469 L 55.257812 95.976562 C 50.40625 100.816406 47.734375 107.273438 47.734375 114.136719 C 47.734375 121 50.40625 127.449219 55.257812 132.296875 L 79.449219 156.488281 C 76.480469 166.953125 78.976562 178.640625 87.191406 186.855469 C 93.039062 192.710938 100.824219 195.945312 109.105469 195.945312 C 112.023438 195.945312 114.839844 195.40625 117.574219 194.625 L 148.464844 225.503906 L 179.742188 256.785156 L 165.960938 269.359375 C 132.886719 260.199219 95.289062 269.097656 69.097656 295.28125 C 50.664062 313.710938 42.832031 340.703125 48.65625 365.734375 C 54.167969 389.441406 52.832031 414.160156 44.800781 437.222656 L 42.710938 443.222656 L 48.070312 446.617188 C 69.320312 460.0625 93.070312 466.640625 116.640625 466.640625 C 149.550781 466.640625 182.105469 453.808594 206.929688 428.976562 C 225.902344 410 236.121094 383.734375 234.960938 356.902344 C 234.617188 348.96875 233.222656 341.28125 231.054688 333.886719 L 243.359375 320.398438 L 375.535156 452.574219 L 428.480469 464.695312 C 430.792969 465.222656 433.128906 465.488281 435.457031 465.488281 C 443.792969 465.488281 451.921875 462.144531 458.105469 455.960938 C 466.015625 448.039062 469.289062 436.96875 466.847656 426.328125 Z M 286.542969 273.070312 L 395.089844 381.609375 C 393.007812 383.273438 391 385.039062 389.097656 386.945312 C 387.199219 388.839844 385.441406 390.855469 383.777344 392.9375 L 275.742188 284.910156 Z M 400.40625 398.257812 C 411 387.671875 425.382812 381.871094 440.289062 381.929688 L 445.105469 402.984375 C 435.40625 405.199219 426.457031 410.03125 419.320312 417.160156 C 412.222656 424.257812 407.441406 433.257812 405.207031 442.960938 L 384.054688 438.121094 C 383.976562 423.054688 389.710938 408.953125 400.40625 398.257812 Z M 426.023438 367.304688 C 420.128906 368.472656 414.414062 370.335938 409.015625 372.921875 L 297.328125 261.238281 L 308.128906 249.40625 Z M 220.304688 161.574219 L 250.734375 192.015625 L 238.902344 202.808594 L 208.992188 172.886719 Z M 227.070312 213.609375 L 215.238281 224.40625 L 186.359375 195.527344 L 197.679688 184.207031 Z M 66.566406 120.984375 C 64.734375 119.152344 63.734375 116.726562 63.734375 114.144531 C 63.734375 111.558594 64.742188 109.128906 66.566406 107.304688 L 109.441406 64.433594 C 113.222656 60.640625 119.351562 60.648438 123.136719 64.433594 L 144.472656 85.769531 L 87.902344 142.335938 Z M 98.503906 175.542969 C 92.664062 169.703125 92.664062 160.191406 98.503906 154.351562 L 156.503906 96.351562 C 159.425781 93.433594 163.265625 91.96875 167.097656 91.96875 C 170.9375 91.96875 174.777344 93.433594 177.695312 96.351562 C 183.535156 102.191406 183.535156 111.710938 177.695312 117.550781 L 119.703125 175.542969 C 114.03125 181.222656 104.167969 181.207031 98.503906 175.542969 Z M 132.160156 186.574219 L 188.726562 130.007812 L 208.992188 150.273438 L 152.425781 206.839844 Z M 163.734375 218.152344 L 175.046875 206.839844 L 203.40625 235.199219 L 191.574219 245.992188 Z M 195.617188 417.664062 C 159.792969 453.496094 105.632812 460.753906 61.921875 436.257812 C 69.128906 412.128906 69.953125 386.640625 64.238281 362.105469 C 59.664062 342.414062 65.855469 321.144531 80.40625 306.59375 C 110.65625 276.34375 158.929688 273.320312 190.304688 299.671875 C 207.808594 314.367188 217.984375 334.945312 218.96875 357.601562 C 219.945312 379.960938 211.433594 401.847656 195.617188 417.664062 Z M 200.609375 287.425781 C 195.03125 282.742188 188.984375 278.921875 182.664062 275.769531 L 288.398438 179.304688 L 306.34375 197.246094 L 317.65625 185.9375 L 300.230469 168.511719 L 313.503906 156.40625 L 330.351562 173.257812 L 341.664062 161.945312 L 325.335938 145.617188 L 338.609375 133.511719 L 354.351562 149.257812 L 365.664062 137.945312 L 350.441406 122.71875 L 411.863281 66.6875 C 417.921875 61.222656 427.160156 61.488281 432.929688 67.230469 C 438.6875 72.992188 438.929688 82.238281 433.511719 88.257812 L 224.511719 317.335938 C 218.726562 306.070312 210.71875 295.910156 200.609375 287.425781 Z M 264.953125 296.742188 L 375.113281 406.902344 C 372.542969 412.304688 370.632812 417.992188 369.457031 423.871094 L 254.160156 308.566406 Z M 264.953125 296.742188 "/>
</g>
</svg>
