<?xml version="1.0" encoding="UTF-8"?>
<svg xmlns="http://www.w3.org/2000/svg" xmlns:xlink="http://www.w3.org/1999/xlink" width="512pt" height="512pt" viewBox="0 0 512 512" version="1.1">
<defs>
<linearGradient id="linear0" gradientUnits="userSpaceOnUse" x1="43" y1="72.678062" x2="43" y2="96.349564" gradientTransform="matrix(8,0,0,8,0,0)">
<stop offset="0" style="stop-color:rgb(98.823529%,95.294118%,99.215686%);stop-opacity:1;"/>
<stop offset="1" style="stop-color:rgb(43.137255%,85.490197%,98.823529%);stop-opacity:1;"/>
</linearGradient>
<linearGradient id="linear1" gradientUnits="userSpaceOnUse" x1="85.994629" y1="9.20469" x2="85.994629" y2="137.995056" gradientTransform="matrix(2.976744,0,0,2.976744,0,0)">
<stop offset="0" style="stop-color:rgb(87.843138%,56.470591%,94.117647%);stop-opacity:1;"/>
<stop offset="1" style="stop-color:rgb(1.960784%,74.117649%,96.078432%);stop-opacity:1;"/>
</linearGradient>
<linearGradient id="linear2" gradientUnits="userSpaceOnUse" x1="129" y1="9.20469" x2="129" y2="137.995056" gradientTransform="matrix(2.976744,0,0,2.976744,0,0)">
<stop offset="0" style="stop-color:rgb(87.843138%,56.470591%,94.117647%);stop-opacity:1;"/>
<stop offset="1" style="stop-color:rgb(1.960784%,74.117649%,96.078432%);stop-opacity:1;"/>
</linearGradient>
<linearGradient id="linear3" gradientUnits="userSpaceOnUse" x1="129" y1="9.20469" x2="129" y2="137.995056" gradientTransform="matrix(2.976744,0,0,2.976744,0,0)">
<stop offset="0" style="stop-color:rgb(87.843138%,56.470591%,94.117647%);stop-opacity:1;"/>
<stop offset="1" style="stop-color:rgb(1.960784%,74.117649%,96.078432%);stop-opacity:1;"/>
</linearGradient>
</defs>
<g id="surface6909386">
<path style=" stroke:none;fill-rule:nonzero;fill:url(#linear0);" d="M 168 256 C 168 278.089844 150.089844 296 128 296 C 105.910156 296 88 278.089844 88 256 C 88 233.910156 105.910156 216 128 216 C 150.089844 216 168 233.910156 168 256 Z M 168 256 "/>
<path style=" stroke:none;fill-rule:nonzero;fill:url(#linear1);" d="M 434.910156 333.089844 C 412.792969 310.984375 379.785156 306.367188 353.03125 319.089844 L 344.40625 310.464844 C 337.3125 303.375 326.121094 301.910156 317.230469 305.921875 L 271.03125 259.71875 C 269.632812 258.320312 268.0625 257.160156 266.511719 256 C 268.070312 254.839844 269.640625 253.679688 271.03125 252.28125 L 316.472656 206.839844 C 319.71875 208.382812 323.214844 209.246094 326.742188 209.246094 C 332.894531 209.246094 339.039062 206.902344 343.71875 202.222656 L 352.328125 193.617188 C 361.894531 198.191406 372.40625 200.6875 383.320312 200.6875 C 402.542969 200.6875 420.632812 193.191406 434.222656 179.59375 C 462.296875 151.519531 462.296875 105.839844 434.222656 77.769531 C 406.152344 49.695312 360.472656 49.671875 332.398438 77.769531 C 318.800781 91.359375 311.304688 109.449219 311.304688 128.671875 C 311.304688 139.59375 313.800781 150.105469 318.375 159.671875 L 309.769531 168.273438 C 302.398438 175.640625 300.929688 186.609375 305.152344 195.519531 L 259.710938 240.960938 C 255.183594 245.503906 249.160156 248 242.742188 248 L 230.527344 248 C 227.214844 238.710938 218.414062 232 208 232 L 195.800781 232 C 185.886719 204.078125 159.28125 184 128 184 C 88.296875 184 56 216.296875 56 256 C 56 295.703125 88.296875 328 128 328 C 159.28125 328 185.886719 307.921875 195.800781 280 L 208 280 C 218.414062 280 227.214844 273.289062 230.527344 264 L 242.742188 264 C 249.160156 264 255.191406 266.503906 259.71875 271.03125 L 305.832031 317.144531 C 304.3125 320.328125 303.433594 323.800781 303.433594 327.433594 C 303.433594 333.847656 305.9375 339.878906 310.464844 344.398438 L 319.089844 353.023438 C 306.359375 379.777344 310.96875 412.792969 333.089844 434.910156 C 347.128906 448.945312 365.566406 455.960938 384 455.960938 C 402.433594 455.960938 420.871094 448.945312 434.910156 434.910156 C 462.984375 406.832031 462.984375 361.167969 434.910156 333.089844 Z M 343.71875 89.089844 C 354.632812 78.175781 368.976562 72.710938 383.3125 72.710938 C 397.65625 72.710938 412 78.175781 422.910156 89.089844 C 444.742188 110.921875 444.742188 146.449219 422.910156 168.28125 C 412.335938 178.855469 398.273438 184.6875 383.320312 184.6875 C 368.359375 184.6875 354.296875 178.855469 343.71875 168.28125 C 333.144531 157.703125 327.3125 143.640625 327.3125 128.679688 C 327.3125 113.726562 333.144531 99.664062 343.71875 89.089844 Z M 332.40625 179.59375 C 334.3125 181.496094 336.328125 183.257812 338.398438 184.921875 L 332.40625 190.910156 C 329.375 193.9375 324.121094 193.929688 321.089844 190.910156 C 317.96875 187.785156 317.96875 182.71875 321.089844 179.59375 L 327.089844 173.601562 C 328.742188 175.671875 330.503906 177.6875 332.40625 179.59375 Z M 128 312 C 97.128906 312 72 286.871094 72 256 C 72 225.128906 97.128906 200 128 200 C 158.871094 200 184 225.128906 184 256 C 184 286.871094 158.871094 312 128 312 Z M 208 264 L 199.527344 264 C 199.824219 261.367188 200 258.703125 200 256 C 200 253.296875 199.824219 250.632812 199.527344 248 L 208 248 C 212.414062 248 216 251.585938 216 256 C 216 260.414062 212.414062 264 208 264 Z M 321.777344 333.078125 C 320.265625 331.574219 319.433594 329.574219 319.433594 327.433594 C 319.433594 325.296875 320.265625 323.289062 321.777344 321.777344 C 324.816406 318.761719 330.0625 318.753906 333.089844 321.777344 L 339.078125 327.769531 C 337.015625 329.425781 335 331.175781 333.089844 333.089844 C 331.175781 335 329.425781 337.007812 327.769531 339.078125 Z M 423.601562 423.601562 C 401.769531 445.433594 366.230469 445.433594 344.398438 423.601562 C 322.566406 401.769531 322.566406 366.230469 344.398438 344.398438 C 366.238281 322.566406 401.777344 322.566406 423.601562 344.398438 C 445.433594 366.230469 445.433594 401.769531 423.601562 423.601562 Z M 423.601562 423.601562 "/>
<path style=" stroke:none;fill-rule:nonzero;fill:url(#linear2);" d="M 384 168 C 394.6875 168 404.734375 163.832031 412.28125 156.28125 C 419.832031 148.734375 424 138.6875 424 128 C 424 117.3125 419.832031 107.265625 412.28125 99.71875 C 404.734375 92.167969 394.6875 88 384 88 C 373.3125 88 363.265625 92.167969 355.71875 99.71875 C 348.167969 107.265625 344 117.3125 344 128 C 344 138.6875 348.167969 148.726562 355.71875 156.28125 C 363.273438 163.832031 373.3125 168 384 168 Z M 367.03125 111.03125 C 371.558594 106.503906 377.585938 104 384 104 C 390.414062 104 396.441406 106.503906 400.96875 111.03125 C 405.496094 115.558594 408 121.585938 408 128 C 408 134.414062 405.496094 140.441406 400.96875 144.96875 C 391.902344 154.03125 376.097656 154.03125 367.03125 144.96875 C 362.503906 140.441406 360 134.414062 360 128 C 360 121.585938 362.503906 115.558594 367.03125 111.03125 Z M 367.03125 111.03125 "/>
<path style=" stroke:none;fill-rule:nonzero;fill:url(#linear3);" d="M 412.28125 355.71875 C 404.734375 348.167969 394.6875 344 384 344 C 373.3125 344 363.273438 348.167969 355.71875 355.71875 C 348.167969 363.273438 344 373.3125 344 384 C 344 394.6875 348.167969 404.734375 355.71875 412.28125 C 363.265625 419.832031 373.3125 424 384 424 C 394.6875 424 404.734375 419.832031 412.28125 412.28125 C 419.832031 404.734375 424 394.6875 424 384 C 424 373.3125 419.832031 363.265625 412.28125 355.71875 Z M 400.96875 400.96875 C 391.902344 410.03125 376.097656 410.03125 367.03125 400.96875 C 362.503906 396.441406 360 390.414062 360 384 C 360 377.585938 362.503906 371.558594 367.03125 367.03125 C 371.558594 362.503906 377.585938 360 384 360 C 390.414062 360 396.441406 362.503906 400.96875 367.03125 C 405.496094 371.558594 408 377.585938 408 384 C 408 390.414062 405.503906 396.441406 400.96875 400.96875 Z M 400.96875 400.96875 "/>
</g>
</svg>
